<svg width="80" height="80" viewBox="0 0 80 80" fill="none" xmlns="http://www.w3.org/2000/svg">
  <circle opacity="0.2" cx="40" cy="40" r="39" stroke="#A0A1A6" stroke-width="2" />
  <path
    d="M40.7784 50.5219C40.7787 50.5217 40.7791 50.5214 40.7795 50.5212L46.6701 46.0774C47.1114 45.7445 47.1098 45.2061 46.6663 44.8747C46.2228 44.5433 45.5056 44.5446 45.0642 44.8775L41.1094 47.8611L41.1094 29.8504C41.1094 29.3807 40.6022 29 39.9765 29C39.3509 29 38.8437 29.3807 38.8437 29.8504L38.8437 47.861L34.8888 44.8776C34.4475 44.5447 33.7302 44.5434 33.2868 44.8747C32.8432 45.2061 32.8417 45.7446 33.2829 46.0775L39.1736 50.5212C39.1739 50.5214 39.1743 50.5217 39.1747 50.522C39.6175 50.855 40.3371 50.854 40.7784 50.5219Z"
    fill="#2E3033" />
</svg>