<svg width="31" height="32" viewBox="0 0 31 32" fill="none" xmlns="http://www.w3.org/2000/svg">
  <path d="M29.8295 13.3054L17.1849 13.3048C16.6265 13.3048 16.174 13.7573 16.174 14.3157V18.3551C16.174 18.9133 16.6265 19.366 17.1848 19.366H24.3055C23.5258 21.3895 22.0705 23.0842 20.2138 24.1609L23.25 29.4169C28.1205 26.6001 31 21.6577 31 16.1251C31 15.3373 30.9419 14.7742 30.8258 14.1401C30.7375 13.6583 30.3193 13.3054 29.8295 13.3054Z" fill="#167EE6"/>
  <path d="M15.5 25.4346C12.0153 25.4346 8.97313 23.5307 7.33927 20.7133L2.08344 23.7427C4.7581 28.3783 9.7686 31.4999 15.5 31.4999C18.3116 31.4999 20.9646 30.7429 23.25 29.4236V29.4164L20.2137 24.1603C18.8249 24.9658 17.2177 25.4346 15.5 25.4346Z" fill="#12B347"/>
  <path d="M23.25 29.4231V29.4159L20.2138 24.1598C18.8249 24.9652 17.2179 25.4341 15.5 25.4341V31.4993C18.3116 31.4993 20.9647 30.7423 23.25 29.4231Z" fill="#0F993E"/>
  <path d="M6.06523 16.0005C6.06523 14.2828 6.53398 12.6759 7.33932 11.2871L2.08348 8.25769C0.756958 10.5359 0 13.1817 0 16.0005C0 18.8193 0.756958 21.4651 2.08348 23.7433L7.33932 20.7139C6.53398 19.3251 6.06523 17.7181 6.06523 16.0005Z" fill="#FFD500"/>
  <path d="M15.5 6.56535C17.7724 6.56535 19.8596 7.3728 21.49 8.71591C21.8922 9.04723 22.4768 9.02331 22.8452 8.65488L25.7073 5.79283C26.1253 5.37481 26.0955 4.69057 25.649 4.3032C22.9174 1.93345 19.3633 0.500122 15.5 0.500122C9.7686 0.500122 4.7581 3.62174 2.08344 8.25733L7.33927 11.2867C8.97313 8.46931 12.0152 6.56535 15.5 6.56535Z" fill="#FF4B26"/>
  <path d="M21.49 8.71591C21.8922 9.04723 22.4769 9.02331 22.8452 8.65488L25.7073 5.79283C26.1253 5.37481 26.0955 4.69057 25.649 4.30319C22.9174 1.93339 19.3633 0.500122 15.5 0.500122V6.56535C17.7723 6.56535 19.8597 7.3728 21.49 8.71591Z" fill="#D93F21"/>
  </svg>
  