<svg width="16" height="21" viewBox="0 0 16 21" fill="none" xmlns="http://www.w3.org/2000/svg">
<path d="M15.87 6.59998C15.7955 6.42869 15.6745 6.2817 15.5207 6.17566C15.367 6.06961 15.1866 6.00875 15 5.99998H10.42L11.69 1.25998C11.7304 1.11165 11.7362 0.955997 11.7067 0.80511C11.6772 0.654223 11.6133 0.512165 11.52 0.389976C11.4268 0.268961 11.3072 0.170891 11.1703 0.103287C11.0333 0.0356838 10.8827 0.000343209 10.73 -2.38712e-05H3.73C3.50424 -0.00775711 3.28251 0.0611759 3.10092 0.195548C2.91934 0.32992 2.7886 0.521814 2.73 0.739976L0.0499995 10.74C0.00955166 10.8883 0.00384791 11.044 0.0333317 11.1948C0.0628154 11.3457 0.126692 11.4878 0.219999 11.61C0.314184 11.7323 0.435425 11.8312 0.57422 11.8989C0.713015 11.9665 0.865594 12.0011 1.02 12H4.89L3.08 18.74C3.0207 18.9573 3.03652 19.1883 3.1249 19.3955C3.21329 19.6028 3.36905 19.7741 3.56696 19.8817C3.76487 19.9893 3.99332 20.027 4.2153 19.9886C4.43728 19.9501 4.63979 19.8379 4.79 19.67L15.69 7.66998C15.8198 7.52786 15.9058 7.35131 15.9377 7.16151C15.9697 6.97171 15.9461 6.77674 15.87 6.59998ZM6.08 15.28L7.15 11.28C7.19045 11.1317 7.19615 10.976 7.16667 10.8251C7.13718 10.6742 7.07331 10.5322 6.98 10.41C6.88684 10.289 6.7672 10.1909 6.63026 10.1233C6.49332 10.0557 6.34272 10.0203 6.19 10.02H2.35L4.49 1.99998H9.42L8.15 6.73998C8.10923 6.89103 8.10447 7.04955 8.1361 7.20278C8.16774 7.35601 8.23489 7.49968 8.33216 7.62223C8.42942 7.74479 8.55409 7.84281 8.69613 7.90841C8.83817 7.97402 8.99363 8.00538 9.15 7.99998H12.72L6.08 15.28Z" fill="#224EFE"/>
</svg>
