<svg version="1.1" xmlns="http://www.w3.org/2000/svg" xmlns:xlink="http://www.w3.org/1999/xlink">
    <symbol id="plus" viewBox="0 0 10 11">
        <path d="M10 4.41038V6.21604H0V4.41038H10ZM5.93186 0V11H4.07816V0H5.93186Z" />
    </symbol>
    <symbol id="share" viewBox="0 0 17 18">
        <path
            d="M13.8125 6.32812C12.7629 6.32812 11.8303 5.8218 11.2491 5.04243L6.2458 7.58053C6.33166 7.87024 6.37517 8.17068 6.375 8.47266C6.37538 8.87942 6.29631 9.2824 6.14217 9.65929L11.386 12.7867C11.971 12.105 12.8417 11.6719 13.8125 11.6719C15.5701 11.6719 17 13.0913 17 14.8359C17 16.5806 15.5701 18 13.8125 18C12.0549 18 10.625 16.5806 10.625 14.8359C10.6246 14.4446 10.6978 14.0567 10.8407 13.692L5.58379 10.5567C4.99913 11.2183 4.14166 11.6367 3.1875 11.6367C1.42991 11.6367 0 10.2173 0 8.47266C0 6.72799 1.42991 5.30859 3.1875 5.30859C4.25432 5.30859 5.2003 5.83158 5.77919 6.63279L10.768 4.10207C10.6729 3.79834 10.6247 3.4821 10.625 3.16406C10.625 1.4194 12.0549 0 13.8125 0C15.5701 0 17 1.4194 17 3.16406C17 4.90873 15.5701 6.32812 13.8125 6.32812ZM13.8125 16.9453C14.9842 16.9453 15.9375 15.999 15.9375 14.8359C15.9375 13.6728 14.9842 12.7266 13.8125 12.7266C12.6408 12.7266 11.6875 13.6728 11.6875 14.8359C11.6875 15.999 12.6408 16.9453 13.8125 16.9453ZM3.1875 6.36328C2.01577 6.36328 1.0625 7.30955 1.0625 8.47266C1.0625 9.63577 2.01577 10.582 3.1875 10.582C4.35922 10.582 5.3125 9.63577 5.3125 8.47266C5.3125 7.30955 4.35922 6.36328 3.1875 6.36328ZM13.8125 1.05469C12.6408 1.05469 11.6875 2.00095 11.6875 3.16406C11.6875 4.32717 12.6408 5.27344 13.8125 5.27344C14.9842 5.27344 15.9375 4.32717 15.9375 3.16406C15.9375 2.00095 14.9842 1.05469 13.8125 1.05469Z" />
    </symbol>
    <symbol id="top" viewBox="0 0 28 28">
        <path
            d="M9.87904 9.79365L9.87642 9.79578L9.87392 9.79821L9.87904 9.79365ZM21.4922 9.57603C21.411 9.4978 21.3209 9.42935 21.2238 9.37209C21.0864 9.29119 20.9338 9.23935 20.7755 9.21977C20.6172 9.20018 20.4566 9.21328 20.3036 9.25823C20.1506 9.30319 20.0084 9.37906 19.8859 9.48114C19.7633 9.58323 19.663 9.70936 19.5912 9.85175C19.1893 10.6436 18.635 11.3482 17.9602 11.9253C18.0634 11.3439 18.1154 10.7545 18.1157 10.1639C18.1179 8.36737 17.6439 6.60233 16.7421 5.04851C15.8403 3.49469 14.5429 2.20758 12.9819 1.31825C12.81 1.22077 12.6161 1.16858 12.4184 1.16656C12.2207 1.16455 12.0258 1.21279 11.8519 1.30675C11.678 1.4007 11.5308 1.5373 11.4242 1.70373C11.3175 1.87015 11.2549 2.06094 11.2422 2.2582C11.1769 3.3644 10.8877 4.44583 10.3921 5.43697C9.89656 6.42811 9.20493 7.30833 8.35914 8.02428L8.09026 8.24303C7.20583 8.83814 6.42297 9.57175 5.77174 10.4157C4.75944 11.691 4.0582 13.1846 3.72361 14.7781C3.38902 16.3716 3.4303 18.0211 3.84417 19.5958C4.25804 21.1706 5.03312 22.6272 6.10794 23.8503C7.18276 25.0734 8.52776 26.0292 10.0363 26.642C10.2134 26.7143 10.4056 26.742 10.5959 26.7225C10.7863 26.7031 10.9689 26.6371 11.1277 26.5303C11.2865 26.4236 11.4166 26.2794 11.5065 26.1105C11.5965 25.9416 11.6434 25.7532 11.6433 25.5619C11.6425 25.4381 11.6229 25.3152 11.5852 25.1973C11.3242 24.2162 11.249 23.1948 11.3636 22.1861C12.4675 24.2682 14.2396 25.9187 16.3948 26.8721C16.6579 26.9898 16.9553 27.0056 17.2294 26.9165C18.9322 26.3669 20.4662 25.391 21.6857 24.0816C22.9051 22.7721 23.7695 21.1726 24.1966 19.4351C24.6237 17.6975 24.5995 15.8795 24.1262 14.1539C23.6528 12.4284 22.7461 10.8525 21.4922 9.57603ZM16.9366 24.5456C15.9196 24.0302 15.0225 23.3065 14.3036 22.4217C13.5847 21.5368 13.06 20.5105 12.7638 19.4095C12.6733 19.0388 12.6034 18.6634 12.5542 18.285C12.5208 18.044 12.4131 17.8195 12.2459 17.6428C12.0787 17.4661 11.8604 17.3461 11.6216 17.2995C11.5481 17.285 11.4733 17.2778 11.3983 17.2779C11.1933 17.2778 10.9918 17.3318 10.8143 17.4344C10.6368 17.537 10.4894 17.6846 10.3872 17.8624C9.41914 19.532 8.93232 21.4371 8.98066 23.3664C8.12927 22.7045 7.41773 21.8801 6.88728 20.9411C6.35683 20.0022 6.01802 18.9673 5.89048 17.8964C5.76293 16.8255 5.84921 15.74 6.14429 14.7027C6.43937 13.6654 6.93739 12.697 7.60949 11.8536C8.1198 11.1907 8.73543 10.6161 9.43182 10.1526C9.46198 10.1331 9.49089 10.1118 9.51841 10.0888C9.51841 10.0888 9.86455 9.80238 9.87638 9.79582C11.5385 8.38994 12.7207 6.50059 13.2582 4.39101C14.5294 5.56612 15.377 7.12805 15.6695 8.83427C15.9619 10.5405 15.6828 12.2955 14.8755 13.8269C14.7689 14.0312 14.7251 14.2626 14.7498 14.4918C14.7744 14.7209 14.8664 14.9377 15.0141 15.1146C15.1618 15.2916 15.3586 15.4208 15.5797 15.4861C15.8008 15.5513 16.0363 15.5496 16.2564 15.4812C18.0435 14.921 19.616 13.8268 20.7624 12.3458C21.4514 13.3635 21.9018 14.5235 22.0801 15.7395C22.2585 16.9554 22.1601 18.196 21.7924 19.3686C21.4246 20.5413 20.797 21.6158 19.9562 22.5122C19.1155 23.4086 18.0833 24.1036 16.9365 24.5456L16.9366 24.5456Z" />
    </symbol>
    <symbol id="time" viewBox="0 0 49 61">
        <path
            d="M46.5764 60.1611C47.6438 60.1611 48.5172 59.2878 48.5172 58.2204C48.5172 57.153 47.6438 56.2796 46.5764 56.2796H42.6951V45.8776C42.6951 43.9078 41.8412 42.0351 40.3664 40.7445L30.7018 32.2928C30.0516 31.7299 29.7024 30.944 29.7024 30.0804C29.7024 29.2168 30.0615 28.4309 30.7018 27.868L40.3664 19.4163C41.851 18.1257 42.6951 16.253 42.6951 14.2832V3.88116H46.5764C47.6438 3.88116 48.5172 3.00784 48.5172 1.94042C48.5172 0.873011 47.6437 0 46.5764 0H42.6951H5.82205H1.94074C0.873323 0 0 0.873324 0 1.94074C0 3.00815 0.873323 3.88147 1.94074 3.88147H5.82205V15.2345C5.82205 17.214 6.67598 19.0964 8.18006 20.387L16.7966 27.8586C17.4468 28.4215 17.8156 29.2171 17.8156 30.0807C17.8156 30.9443 17.4565 31.7399 16.7966 32.3028L8.18006 39.7647C6.67598 41.065 5.82205 42.9474 5.82205 44.9269V56.28H1.94074C0.873323 56.28 0 57.1533 0 58.2207C0 59.2881 0.873323 60.1614 1.94074 60.1614H5.82205H42.695H46.5764V60.1611ZM38.8136 56.2798H9.70337V44.9267C9.70337 44.0728 10.0722 43.2675 10.7126 42.7047L19.3292 35.2428C20.8235 33.9425 21.6872 32.0698 21.6872 30.0903C21.6872 28.1107 20.8332 26.2283 19.3292 24.9377L10.7126 17.4662C10.0722 16.9033 9.70337 16.0883 9.70337 15.2344V3.88132H38.8136V14.2833C38.8136 15.1275 38.4449 15.9328 37.8044 16.4957L28.1398 24.9474C26.6648 26.238 25.8111 28.1107 25.8111 30.0806C25.8111 32.0504 26.665 33.9231 28.1398 35.2137L37.8141 43.6654C38.4545 44.2283 38.8135 45.0336 38.8135 45.8778L38.8136 56.2798Z"
            fill="url(#paint0_linear_90_910)" />
        <path
            d="M26.6941 36.0773C25.6558 35.1652 24.802 34.0396 24.3361 32.7393C24.0354 31.9048 23.9092 31.0607 23.8898 30.2262C23.8898 30.1777 23.8898 30.0806 23.8898 30.0806H23.6084V30.2165C23.5696 32.4289 22.609 34.5151 20.94 35.9707L12.3234 43.4422C11.8964 43.8207 11.6442 44.3543 11.6442 44.9269V53.4756C11.6442 53.951 12.0323 54.3392 12.5078 54.3392H36.0095C36.4849 54.3392 36.8731 53.951 36.8731 53.4756V45.8778C36.8731 45.3052 36.6305 44.7716 36.2036 44.3931L26.6941 36.0773Z"
            fill="url(#paint1_linear_90_910)" />
        <defs>
            <linearGradient id="paint0_linear_90_910" x1="19.5" y1="-2" x2="19.5" y2="72.5"
                gradientUnits="userSpaceOnUse">
                <stop stop-color="#D9D9D9" />
                <stop offset="1" stop-color="#224EFE" />
            </linearGradient>
            <linearGradient id="paint1_linear_90_910" x1="21.7842" y1="29.2741" x2="21.7842"
                y2="59.3145" gradientUnits="userSpaceOnUse">
                <stop stop-color="#D9D9D9" />
                <stop offset="1" stop-color="#224EFE" />
            </linearGradient>
        </defs>
    </symbol>

    <symbol id="facebook" viewBox="">
        <path d="M21.4282 0.147034H1.8559C1.1857 0.147427 0.642467 0.666259 0.642571 1.30623V19.9888C0.642983 20.6286 1.18652 21.1471 1.85697 21.147H12.3945V13.0259H9.5371V9.84723H12.3945V7.50793C12.3945 4.79512 14.1295 3.31856 16.6647 3.31856C17.879 3.31856 18.9224 3.40495 19.2266 3.44354V6.27887H17.4784C16.0991 6.27887 15.832 6.90447 15.832 7.8227V9.84723H19.1299L18.7002 13.0259H15.832V21.147H21.4282C22.0988 21.1472 22.6424 20.6284 22.6426 19.9883V1.30525C22.6423 0.665471 22.0986 0.146935 21.4282 0.147034Z" />
    </symbol>
    <symbol id="telegram" viewBox="0 0 24 24">
        <path d="M1.05662 9.59003L9.68385 13.2878L17.6432 5.32851C17.9097 5.06195 18.3416 5.06195 18.6082 5.32851C18.8747 5.59507 18.8747 6.02695 18.6082 6.29351L10.6488 14.2528L14.3466 22.88C14.4584 23.1425 14.7179 23.3004 14.9897 23.2939C15.1258 23.2906 15.2579 23.2467 15.3689 23.1679C15.4799 23.089 15.5649 22.9788 15.6128 22.8513L23.8929 0.922725C23.9389 0.799981 23.9486 0.666597 23.9208 0.538498C23.893 0.410398 23.829 0.292997 23.7363 0.20031C23.5477 0.00973102 23.2632 -0.0502769 23.0139 0.0437158L1.08529 8.32381C0.957828 8.37175 0.847601 8.45668 0.768752 8.5677C0.689902 8.67873 0.646026 8.81078 0.642756 8.94691C0.639648 9.08318 0.677407 9.21725 0.751168 9.33187C0.824929 9.44649 0.931315 9.5364 1.05662 9.59003Z" />
    </symbol>
    <symbol id="instagram" viewBox="0 0 25 24">
        <path d="M17.9248 0H7.24178C3.76488 0 0.936295 2.82858 0.936295 6.30549V16.9887C0.936295 20.4654 3.76488 23.294 7.24178 23.294H17.925C21.4017 23.294 24.2303 20.4654 24.2303 16.9887V6.30549C24.2303 2.82858 21.4017 0 17.9248 0ZM12.5833 18.0163C9.07123 18.0163 6.21403 15.1591 6.21403 11.647C6.21403 8.13489 9.07118 5.27773 12.5833 5.27773C16.0954 5.27773 18.9526 8.13489 18.9526 11.647C18.9526 15.1591 16.0954 18.0163 12.5833 18.0163ZM19.1049 6.77983C18.067 6.77983 17.2229 5.93565 17.2229 4.89775C17.2229 3.85984 18.067 3.01557 19.1049 3.01557C20.1428 3.01557 20.9871 3.85989 20.9871 4.89775C20.9871 5.9356 20.1427 6.77983 19.1049 6.77983Z"/>
        <path d="M12.5833 6.6433C9.82445 6.6433 7.57967 8.88785 7.57967 11.647C7.57967 14.4059 9.82445 16.6506 12.5833 16.6506C15.3425 16.6506 17.587 14.4059 17.587 11.647C17.587 8.88785 15.3425 6.6433 12.5833 6.6433ZM19.1049 4.38123C18.8202 4.38123 18.5885 4.61303 18.5885 4.8977C18.5885 5.18241 18.8202 5.41417 19.1049 5.41417C19.3898 5.41417 19.6216 5.1826 19.6216 4.8977C19.6216 4.61285 19.3898 4.38123 19.1049 4.38123Z" />
    </symbol>
    <symbol id="twitter" viewBox="0 0 24 20">
        <path d="M23.5244 2.42443C22.6581 2.80442 21.7351 3.05629 20.7728 3.17858C21.7628 2.58749 22.5184 1.65864 22.8736 0.539072C21.9506 1.08939 20.9314 1.47811 19.8454 1.69504C18.9689 0.761822 17.7198 0.183838 16.3571 0.183838C13.7132 0.183838 11.5847 2.3298 11.5847 4.96057C11.5847 5.3391 11.6167 5.70307 11.6954 6.04957C7.72518 5.85594 4.21214 3.95311 1.85216 1.05445C1.44015 1.76929 1.19848 2.58749 1.19848 3.4683C1.19848 5.12218 2.05016 6.58825 3.31969 7.43702C2.55244 7.42246 1.79975 7.19971 1.16208 6.84885V6.90126C1.16208 9.22193 2.81741 11.1495 4.98813 11.5936C4.59941 11.6998 4.17575 11.7508 3.73607 11.7508C3.43034 11.7508 3.12169 11.7333 2.83197 11.6693C3.45072 13.5604 5.20651 14.9508 7.29424 14.9959C5.66948 16.2669 3.6065 17.0327 1.37318 17.0327C0.981549 17.0327 0.605933 17.0152 0.230316 16.9672C2.34571 18.3314 4.85273 19.1103 7.55629 19.1103C16.344 19.1103 21.1484 11.8309 21.1484 5.52109C21.1484 5.30998 21.1411 5.10616 21.1309 4.90379C22.0787 4.23118 22.875 3.39114 23.5244 2.42443Z" />
    </symbol>
</svg>