<svg version="1.1" xmlns="http://www.w3.org/2000/svg" xmlns:xlink="http://www.w3.org/1999/xlink">
  <symbol id="plus" viewBox="0 0 10 11">
    <path d="M10 4.41038V6.21604H0V4.41038H10ZM5.93186 0V11H4.07816V0H5.93186Z" />
  </symbol>
  <symbol id="share" viewBox="0 0 17 18">
    <path
      d="M13.8125 6.32812C12.7629 6.32812 11.8303 5.8218 11.2491 5.04243L6.2458 7.58053C6.33166 7.87024 6.37517 8.17068 6.375 8.47266C6.37538 8.87942 6.29631 9.2824 6.14217 9.65929L11.386 12.7867C11.971 12.105 12.8417 11.6719 13.8125 11.6719C15.5701 11.6719 17 13.0913 17 14.8359C17 16.5806 15.5701 18 13.8125 18C12.0549 18 10.625 16.5806 10.625 14.8359C10.6246 14.4446 10.6978 14.0567 10.8407 13.692L5.58379 10.5567C4.99913 11.2183 4.14166 11.6367 3.1875 11.6367C1.42991 11.6367 0 10.2173 0 8.47266C0 6.72799 1.42991 5.30859 3.1875 5.30859C4.25432 5.30859 5.2003 5.83158 5.77919 6.63279L10.768 4.10207C10.6729 3.79834 10.6247 3.4821 10.625 3.16406C10.625 1.4194 12.0549 0 13.8125 0C15.5701 0 17 1.4194 17 3.16406C17 4.90873 15.5701 6.32812 13.8125 6.32812ZM13.8125 16.9453C14.9842 16.9453 15.9375 15.999 15.9375 14.8359C15.9375 13.6728 14.9842 12.7266 13.8125 12.7266C12.6408 12.7266 11.6875 13.6728 11.6875 14.8359C11.6875 15.999 12.6408 16.9453 13.8125 16.9453ZM3.1875 6.36328C2.01577 6.36328 1.0625 7.30955 1.0625 8.47266C1.0625 9.63577 2.01577 10.582 3.1875 10.582C4.35922 10.582 5.3125 9.63577 5.3125 8.47266C5.3125 7.30955 4.35922 6.36328 3.1875 6.36328ZM13.8125 1.05469C12.6408 1.05469 11.6875 2.00095 11.6875 3.16406C11.6875 4.32717 12.6408 5.27344 13.8125 5.27344C14.9842 5.27344 15.9375 4.32717 15.9375 3.16406C15.9375 2.00095 14.9842 1.05469 13.8125 1.05469Z" />
  </symbol>
  <symbol id="top" viewBox="0 0 28 28">
    <path
      d="M9.87904 9.79365L9.87642 9.79578L9.87392 9.79821L9.87904 9.79365ZM21.4922 9.57603C21.411 9.4978 21.3209 9.42935 21.2238 9.37209C21.0864 9.29119 20.9338 9.23935 20.7755 9.21977C20.6172 9.20018 20.4566 9.21328 20.3036 9.25823C20.1506 9.30319 20.0084 9.37906 19.8859 9.48114C19.7633 9.58323 19.663 9.70936 19.5912 9.85175C19.1893 10.6436 18.635 11.3482 17.9602 11.9253C18.0634 11.3439 18.1154 10.7545 18.1157 10.1639C18.1179 8.36737 17.6439 6.60233 16.7421 5.04851C15.8403 3.49469 14.5429 2.20758 12.9819 1.31825C12.81 1.22077 12.6161 1.16858 12.4184 1.16656C12.2207 1.16455 12.0258 1.21279 11.8519 1.30675C11.678 1.4007 11.5308 1.5373 11.4242 1.70373C11.3175 1.87015 11.2549 2.06094 11.2422 2.2582C11.1769 3.3644 10.8877 4.44583 10.3921 5.43697C9.89656 6.42811 9.20493 7.30833 8.35914 8.02428L8.09026 8.24303C7.20583 8.83814 6.42297 9.57175 5.77174 10.4157C4.75944 11.691 4.0582 13.1846 3.72361 14.7781C3.38902 16.3716 3.4303 18.0211 3.84417 19.5958C4.25804 21.1706 5.03312 22.6272 6.10794 23.8503C7.18276 25.0734 8.52776 26.0292 10.0363 26.642C10.2134 26.7143 10.4056 26.742 10.5959 26.7225C10.7863 26.7031 10.9689 26.6371 11.1277 26.5303C11.2865 26.4236 11.4166 26.2794 11.5065 26.1105C11.5965 25.9416 11.6434 25.7532 11.6433 25.5619C11.6425 25.4381 11.6229 25.3152 11.5852 25.1973C11.3242 24.2162 11.249 23.1948 11.3636 22.1861C12.4675 24.2682 14.2396 25.9187 16.3948 26.8721C16.6579 26.9898 16.9553 27.0056 17.2294 26.9165C18.9322 26.3669 20.4662 25.391 21.6857 24.0816C22.9051 22.7721 23.7695 21.1726 24.1966 19.4351C24.6237 17.6975 24.5995 15.8795 24.1262 14.1539C23.6528 12.4284 22.7461 10.8525 21.4922 9.57603ZM16.9366 24.5456C15.9196 24.0302 15.0225 23.3065 14.3036 22.4217C13.5847 21.5368 13.06 20.5105 12.7638 19.4095C12.6733 19.0388 12.6034 18.6634 12.5542 18.285C12.5208 18.044 12.4131 17.8195 12.2459 17.6428C12.0787 17.4661 11.8604 17.3461 11.6216 17.2995C11.5481 17.285 11.4733 17.2778 11.3983 17.2779C11.1933 17.2778 10.9918 17.3318 10.8143 17.4344C10.6368 17.537 10.4894 17.6846 10.3872 17.8624C9.41914 19.532 8.93232 21.4371 8.98066 23.3664C8.12927 22.7045 7.41773 21.8801 6.88728 20.9411C6.35683 20.0022 6.01802 18.9673 5.89048 17.8964C5.76293 16.8255 5.84921 15.74 6.14429 14.7027C6.43937 13.6654 6.93739 12.697 7.60949 11.8536C8.1198 11.1907 8.73543 10.6161 9.43182 10.1526C9.46198 10.1331 9.49089 10.1118 9.51841 10.0888C9.51841 10.0888 9.86455 9.80238 9.87638 9.79582C11.5385 8.38994 12.7207 6.50059 13.2582 4.39101C14.5294 5.56612 15.377 7.12805 15.6695 8.83427C15.9619 10.5405 15.6828 12.2955 14.8755 13.8269C14.7689 14.0312 14.7251 14.2626 14.7498 14.4918C14.7744 14.7209 14.8664 14.9377 15.0141 15.1146C15.1618 15.2916 15.3586 15.4208 15.5797 15.4861C15.8008 15.5513 16.0363 15.5496 16.2564 15.4812C18.0435 14.921 19.616 13.8268 20.7624 12.3458C21.4514 13.3635 21.9018 14.5235 22.0801 15.7395C22.2585 16.9554 22.1601 18.196 21.7924 19.3686C21.4246 20.5413 20.797 21.6158 19.9562 22.5122C19.1155 23.4086 18.0833 24.1036 16.9365 24.5456L16.9366 24.5456Z" />
  </symbol>
  <symbol id="time" viewBox="0 0 49 61">
    <path
      d="M46.5764 60.1611C47.6438 60.1611 48.5172 59.2878 48.5172 58.2204C48.5172 57.153 47.6438 56.2796 46.5764 56.2796H42.6951V45.8776C42.6951 43.9078 41.8412 42.0351 40.3664 40.7445L30.7018 32.2928C30.0516 31.7299 29.7024 30.944 29.7024 30.0804C29.7024 29.2168 30.0615 28.4309 30.7018 27.868L40.3664 19.4163C41.851 18.1257 42.6951 16.253 42.6951 14.2832V3.88116H46.5764C47.6438 3.88116 48.5172 3.00784 48.5172 1.94042C48.5172 0.873011 47.6437 0 46.5764 0H42.6951H5.82205H1.94074C0.873323 0 0 0.873324 0 1.94074C0 3.00815 0.873323 3.88147 1.94074 3.88147H5.82205V15.2345C5.82205 17.214 6.67598 19.0964 8.18006 20.387L16.7966 27.8586C17.4468 28.4215 17.8156 29.2171 17.8156 30.0807C17.8156 30.9443 17.4565 31.7399 16.7966 32.3028L8.18006 39.7647C6.67598 41.065 5.82205 42.9474 5.82205 44.9269V56.28H1.94074C0.873323 56.28 0 57.1533 0 58.2207C0 59.2881 0.873323 60.1614 1.94074 60.1614H5.82205H42.695H46.5764V60.1611ZM38.8136 56.2798H9.70337V44.9267C9.70337 44.0728 10.0722 43.2675 10.7126 42.7047L19.3292 35.2428C20.8235 33.9425 21.6872 32.0698 21.6872 30.0903C21.6872 28.1107 20.8332 26.2283 19.3292 24.9377L10.7126 17.4662C10.0722 16.9033 9.70337 16.0883 9.70337 15.2344V3.88132H38.8136V14.2833C38.8136 15.1275 38.4449 15.9328 37.8044 16.4957L28.1398 24.9474C26.6648 26.238 25.8111 28.1107 25.8111 30.0806C25.8111 32.0504 26.665 33.9231 28.1398 35.2137L37.8141 43.6654C38.4545 44.2283 38.8135 45.0336 38.8135 45.8778L38.8136 56.2798Z"
      fill="url(#paint0_linear_90_910)" />
    <path
      d="M26.6941 36.0773C25.6558 35.1652 24.802 34.0396 24.3361 32.7393C24.0354 31.9048 23.9092 31.0607 23.8898 30.2262C23.8898 30.1777 23.8898 30.0806 23.8898 30.0806H23.6084V30.2165C23.5696 32.4289 22.609 34.5151 20.94 35.9707L12.3234 43.4422C11.8964 43.8207 11.6442 44.3543 11.6442 44.9269V53.4756C11.6442 53.951 12.0323 54.3392 12.5078 54.3392H36.0095C36.4849 54.3392 36.8731 53.951 36.8731 53.4756V45.8778C36.8731 45.3052 36.6305 44.7716 36.2036 44.3931L26.6941 36.0773Z"
      fill="url(#paint1_linear_90_910)" />
    <defs>
      <linearGradient id="paint0_linear_90_910" x1="19.5" y1="-2" x2="19.5" y2="72.5"
        gradientUnits="userSpaceOnUse">
        <stop stop-color="#D9D9D9" />
        <stop offset="1" stop-color="#224EFE" />
      </linearGradient>
      <linearGradient id="paint1_linear_90_910" x1="21.7842" y1="29.2741" x2="21.7842"
        y2="59.3145" gradientUnits="userSpaceOnUse">
        <stop stop-color="#D9D9D9" />
        <stop offset="1" stop-color="#224EFE" />
      </linearGradient>
    </defs>
  </symbol>

  <symbol id="facebook" viewBox="">
    <path
      d="M21.4282 0.147034H1.8559C1.1857 0.147427 0.642467 0.666259 0.642571 1.30623V19.9888C0.642983 20.6286 1.18652 21.1471 1.85697 21.147H12.3945V13.0259H9.5371V9.84723H12.3945V7.50793C12.3945 4.79512 14.1295 3.31856 16.6647 3.31856C17.879 3.31856 18.9224 3.40495 19.2266 3.44354V6.27887H17.4784C16.0991 6.27887 15.832 6.90447 15.832 7.8227V9.84723H19.1299L18.7002 13.0259H15.832V21.147H21.4282C22.0988 21.1472 22.6424 20.6284 22.6426 19.9883V1.30525C22.6423 0.665471 22.0986 0.146935 21.4282 0.147034Z" />
  </symbol>
  <symbol id="telegram" viewBox="0 0 24 24">
    <path
      d="M1.05662 9.59003L9.68385 13.2878L17.6432 5.32851C17.9097 5.06195 18.3416 5.06195 18.6082 5.32851C18.8747 5.59507 18.8747 6.02695 18.6082 6.29351L10.6488 14.2528L14.3466 22.88C14.4584 23.1425 14.7179 23.3004 14.9897 23.2939C15.1258 23.2906 15.2579 23.2467 15.3689 23.1679C15.4799 23.089 15.5649 22.9788 15.6128 22.8513L23.8929 0.922725C23.9389 0.799981 23.9486 0.666597 23.9208 0.538498C23.893 0.410398 23.829 0.292997 23.7363 0.20031C23.5477 0.00973102 23.2632 -0.0502769 23.0139 0.0437158L1.08529 8.32381C0.957828 8.37175 0.847601 8.45668 0.768752 8.5677C0.689902 8.67873 0.646026 8.81078 0.642756 8.94691C0.639648 9.08318 0.677407 9.21725 0.751168 9.33187C0.824929 9.44649 0.931315 9.5364 1.05662 9.59003Z" />
  </symbol>
  <symbol id="instagram" viewBox="0 0 25 24">
    <path
      d="M17.9248 0H7.24178C3.76488 0 0.936295 2.82858 0.936295 6.30549V16.9887C0.936295 20.4654 3.76488 23.294 7.24178 23.294H17.925C21.4017 23.294 24.2303 20.4654 24.2303 16.9887V6.30549C24.2303 2.82858 21.4017 0 17.9248 0ZM12.5833 18.0163C9.07123 18.0163 6.21403 15.1591 6.21403 11.647C6.21403 8.13489 9.07118 5.27773 12.5833 5.27773C16.0954 5.27773 18.9526 8.13489 18.9526 11.647C18.9526 15.1591 16.0954 18.0163 12.5833 18.0163ZM19.1049 6.77983C18.067 6.77983 17.2229 5.93565 17.2229 4.89775C17.2229 3.85984 18.067 3.01557 19.1049 3.01557C20.1428 3.01557 20.9871 3.85989 20.9871 4.89775C20.9871 5.9356 20.1427 6.77983 19.1049 6.77983Z" />
    <path
      d="M12.5833 6.6433C9.82445 6.6433 7.57967 8.88785 7.57967 11.647C7.57967 14.4059 9.82445 16.6506 12.5833 16.6506C15.3425 16.6506 17.587 14.4059 17.587 11.647C17.587 8.88785 15.3425 6.6433 12.5833 6.6433ZM19.1049 4.38123C18.8202 4.38123 18.5885 4.61303 18.5885 4.8977C18.5885 5.18241 18.8202 5.41417 19.1049 5.41417C19.3898 5.41417 19.6216 5.1826 19.6216 4.8977C19.6216 4.61285 19.3898 4.38123 19.1049 4.38123Z" />
  </symbol>
  <symbol id="twitter" viewBox="0 0 24 20">
    <path
      d="M23.5244 2.42443C22.6581 2.80442 21.7351 3.05629 20.7728 3.17858C21.7628 2.58749 22.5184 1.65864 22.8736 0.539072C21.9506 1.08939 20.9314 1.47811 19.8454 1.69504C18.9689 0.761822 17.7198 0.183838 16.3571 0.183838C13.7132 0.183838 11.5847 2.3298 11.5847 4.96057C11.5847 5.3391 11.6167 5.70307 11.6954 6.04957C7.72518 5.85594 4.21214 3.95311 1.85216 1.05445C1.44015 1.76929 1.19848 2.58749 1.19848 3.4683C1.19848 5.12218 2.05016 6.58825 3.31969 7.43702C2.55244 7.42246 1.79975 7.19971 1.16208 6.84885V6.90126C1.16208 9.22193 2.81741 11.1495 4.98813 11.5936C4.59941 11.6998 4.17575 11.7508 3.73607 11.7508C3.43034 11.7508 3.12169 11.7333 2.83197 11.6693C3.45072 13.5604 5.20651 14.9508 7.29424 14.9959C5.66948 16.2669 3.6065 17.0327 1.37318 17.0327C0.981549 17.0327 0.605933 17.0152 0.230316 16.9672C2.34571 18.3314 4.85273 19.1103 7.55629 19.1103C16.344 19.1103 21.1484 11.8309 21.1484 5.52109C21.1484 5.30998 21.1411 5.10616 21.1309 4.90379C22.0787 4.23118 22.875 3.39114 23.5244 2.42443Z" />
  </symbol>
  <symbol id="light" viewBox="0 0 16 21">
    <path
      d="M15.87 6.59998C15.7955 6.42869 15.6745 6.2817 15.5207 6.17566C15.367 6.06961 15.1866 6.00875 15 5.99998H10.42L11.69 1.25998C11.7304 1.11165 11.7362 0.955997 11.7067 0.80511C11.6772 0.654223 11.6133 0.512165 11.52 0.389976C11.4268 0.268961 11.3072 0.170891 11.1703 0.103287C11.0333 0.0356838 10.8827 0.000343209 10.73 -2.38712e-05H3.73C3.50424 -0.00775711 3.28251 0.0611759 3.10092 0.195548C2.91934 0.32992 2.7886 0.521814 2.73 0.739976L0.0499995 10.74C0.00955166 10.8883 0.00384791 11.044 0.0333317 11.1948C0.0628154 11.3457 0.126692 11.4878 0.219999 11.61C0.314184 11.7323 0.435425 11.8312 0.57422 11.8989C0.713015 11.9665 0.865594 12.0011 1.02 12H4.89L3.08 18.74C3.0207 18.9573 3.03652 19.1883 3.1249 19.3955C3.21329 19.6028 3.36905 19.7741 3.56696 19.8817C3.76487 19.9893 3.99332 20.027 4.2153 19.9886C4.43728 19.9501 4.63979 19.8379 4.79 19.67L15.69 7.66998C15.8198 7.52786 15.9058 7.35131 15.9377 7.16151C15.9697 6.97171 15.9461 6.77674 15.87 6.59998ZM6.08 15.28L7.15 11.28C7.19045 11.1317 7.19615 10.976 7.16667 10.8251C7.13718 10.6742 7.07331 10.5322 6.98 10.41C6.88684 10.289 6.7672 10.1909 6.63026 10.1233C6.49332 10.0557 6.34272 10.0203 6.19 10.02H2.35L4.49 1.99998H9.42L8.15 6.73998C8.10923 6.89103 8.10447 7.04955 8.1361 7.20278C8.16774 7.35601 8.23489 7.49968 8.33216 7.62223C8.42942 7.74479 8.55409 7.84281 8.69613 7.90841C8.83817 7.97402 8.99363 8.00538 9.15 7.99998H12.72L6.08 15.28Z" />
  </symbol>
  <symbol id="arrow" viewBox="0 0 14 8">
    <path
      d="M7.00034 7.27706C6.74942 7.27706 6.49853 7.1897 6.30723 7.01535L0.287214 1.52614C-0.0957379 1.17696 -0.0957379 0.610821 0.287214 0.261781C0.67001 -0.0872602 1.29078 -0.0872602 1.67376 0.261781L7.00034 5.11894L12.327 0.26195C12.7099 -0.0870905 13.3306 -0.0870905 13.7134 0.26195C14.0965 0.610991 14.0965 1.17713 13.7134 1.52631L7.69346 7.01552C7.50206 7.1899 7.25117 7.27706 7.00034 7.27706Z" />
  </symbol>
  <symbol id="thumb" viewBox="0 0 29 28">
    <path d="M1 26.192V10.1719H5.75829V26.192H1Z" stroke-width="2" />
    <path
      d="M27.0571 14.1625L26.2437 14.7578L26.8454 15.5664C27.0812 15.8833 27.2209 16.2758 27.2209 16.7035C27.2209 17.3351 26.9145 17.8944 26.4429 18.2394L25.6293 18.8346L26.231 19.6434C26.4668 19.9603 26.6065 20.3529 26.6065 20.7806C26.6065 21.4126 26.3001 21.9723 25.8289 22.3172L25.0158 22.9123L25.6171 23.7209C25.8526 24.0375 25.9922 24.43 25.9922 24.8577C25.9922 25.9097 25.1461 26.7497 24.1296 26.7497H15.1175C13.7543 26.7497 12.417 26.5048 11.1403 26.0211L10.788 26.951L11.1403 26.0211L9.44775 25.3799V11.5254C10.7256 10.1328 11.9419 8.78138 12.9089 7.6745C13.9113 6.52713 14.7185 5.56171 14.998 5.10978L15.1475 4.86803V4.58377V1.22691C15.1475 1.09303 15.2542 1 15.362 1C17.562 1 19.3708 2.81263 19.3708 5.06011V6.43382L18.5039 9.45897L18.1384 10.7345H19.4652H25.9726C26.9892 10.7345 27.8353 11.5745 27.8353 12.6264C27.8353 13.2579 27.5289 13.8172 27.0571 14.1625Z"
      stroke-width="2" />
  </symbol>
  <symbol id="hand" viewBox="0 0 24 32">
    <g opacity="0.4">
      <path
        d="M8.7797 2.86732L8.78119 2.84001L8.78119 2.81267C8.78119 1.75235 9.57609 1.00018 10.418 1.00018C11.2598 1.00018 12.0547 1.75232 12.0547 2.81267L12.0547 7.78626L12.0547 9.23493L13.4092 8.7213C13.5786 8.65707 13.7554 8.62492 13.9324 8.62514L13.9336 8.62514C14.6398 8.62514 15.3041 9.14338 15.5087 9.94516L15.7966 11.0733L16.8683 10.6184C17.0545 10.5393 17.2509 10.4998 17.4475 10.5001L17.4492 10.5001C18.1555 10.5001 18.8197 11.0184 19.0243 11.8202L19.3122 12.9483L20.384 12.4934C20.5702 12.4143 20.7665 12.3748 20.9631 12.3751L20.9648 12.3751C21.8067 12.3751 22.6016 13.1272 22.6016 14.1876L22.6016 17.9376C22.6016 20.4905 22.2149 22.9812 21.487 25.375L9.08865 25.375L5.46896 20.5492L5.39115 20.4455L5.28945 20.365C4.04681 19.3819 2.23293 17.8195 1.41186 16.1382C1.01507 15.3258 0.895489 14.5763 1.09539 13.8824C1.26924 13.2789 1.72471 12.5786 2.73709 11.848L6.69556 14.1937L8.11377 15.0342L8.20386 13.3881L8.7797 2.86732ZM22.6015 31L8.7812 31L8.7812 30.125C8.7812 29.58 9.1803 29.25 9.53901 29.25L21.8437 29.25C22.2024 29.25 22.6015 29.58 22.6015 30.125L22.6015 31Z"
        stroke="#A0A1A6" stroke-width="2" />
    </g>
  </symbol>
  <symbol id="logo" viewBox="0 0 113 34">
    <path fill-rule="evenodd" clip-rule="evenodd"
      d="M0 8.24576C0 3.69175 3.69175 0 8.24576 0H22.6645C27.2185 0 30.9102 3.69175 30.9102 8.24576V18.5448C30.9102 21.8056 29.3558 24.8044 26.8817 26.7957C25.7331 27.72 24.6703 28.6172 23.1868 29.8696C22.0562 30.824 20.6813 31.9848 18.8378 33.521C17.9611 34.2516 16.6581 34.1331 15.9275 33.2565C15.197 32.3798 15.3154 31.0768 16.1921 30.3462C17.9688 28.8657 19.3299 27.7169 20.4658 26.7582C21.9935 25.4688 23.114 24.5231 24.2906 23.5762C25.8571 22.3155 26.7776 20.4708 26.7776 18.5448V8.24576C26.7776 5.97414 24.9361 4.13263 22.6645 4.13263H8.24576C5.97414 4.13263 4.13263 5.97414 4.13263 8.24576V16.485C4.13263 18.7566 5.97414 20.5982 8.24576 20.5982H17.5149C18.6561 20.5982 19.5812 21.5233 19.5812 22.6645C19.5812 23.8057 18.6561 24.7308 17.5149 24.7308H8.24576C3.69175 24.7308 0 21.039 0 16.485V8.24576Z"
      fill="#6F8BFF" />
    <path
      d="M43.1032 25.7519C42.1565 25.7519 41.2462 25.6548 40.3723 25.4606C39.4984 25.2907 38.6973 24.9873 37.9691 24.5503C37.2651 24.1134 36.6946 23.5186 36.2577 22.7661C35.845 21.9893 35.6387 21.0305 35.6387 19.8895C35.6387 18.5301 35.9057 17.4135 36.4397 16.5396C36.9738 15.6657 37.7385 15.0103 38.7337 14.5733C39.729 14.1364 40.9185 13.9179 42.3021 13.9179C43.2246 13.9179 44.0499 13.9907 44.7782 14.1364C45.5307 14.282 46.1983 14.4884 46.7809 14.7554C47.3877 14.9981 47.8975 15.2773 48.3102 15.5929L48.7107 18.1053C48.1767 17.7412 47.4606 17.4378 46.5624 17.195C45.6642 16.928 44.6932 16.7945 43.6494 16.7945C42.2657 16.7945 41.2098 17.0372 40.4815 17.5227C39.7776 18.0082 39.4256 18.7365 39.4256 19.7075C39.4256 20.4357 39.6319 21.0305 40.0446 21.4917C40.4572 21.9286 40.967 22.2563 41.5739 22.4748C42.205 22.669 42.8605 22.7661 43.5402 22.7661C44.9724 22.7661 46.0284 22.669 46.708 22.4748C47.3877 22.2806 47.7276 21.8315 47.7276 21.1276V13.4809C47.7276 12.1944 47.3392 11.2598 46.5624 10.6772C45.7856 10.0703 44.6811 9.76688 43.2489 9.76688C42.2293 9.76688 41.1734 9.9368 40.081 10.2767C38.9886 10.5922 38.0904 11.0413 37.3865 11.6239V8.05549C38.0662 7.59427 39.0493 7.23014 40.3359 6.96312C41.6467 6.67182 42.994 6.52617 44.3777 6.52617C45.0574 6.52617 45.7371 6.599 46.4167 6.74465C47.1207 6.86602 47.7761 7.07236 48.383 7.36366C48.9899 7.63068 49.5239 8.00694 49.9852 8.49244C50.4707 8.95367 50.8469 9.52413 51.114 10.2038C51.381 10.8835 51.5145 11.6846 51.5145 12.607V21.346C51.5145 22.5355 51.1382 23.458 50.3857 24.1134C49.6575 24.7445 48.6622 25.1693 47.3999 25.3878C46.1376 25.6306 44.7054 25.7519 43.1032 25.7519Z"
      fill="white" />
    <path
      d="M56.1588 8.41962C56.6928 8.15259 57.2876 7.90984 57.943 7.69137C58.6227 7.44862 59.3388 7.24228 60.0913 7.07236C60.8438 6.90243 61.6085 6.76892 62.3853 6.67182C63.1621 6.57472 63.9146 6.52617 64.6429 6.52617C66.3664 6.52617 67.7743 6.76892 68.8667 7.25442C69.9591 7.71564 70.7723 8.44389 71.3063 9.43917C71.8404 10.4102 72.1074 11.636 72.1074 13.1168V25.2057H68.2841V13.6266C68.2841 13.1654 68.2234 12.7163 68.1021 12.2793C68.005 11.8181 67.7986 11.4054 67.483 11.0413C67.1917 10.6529 66.7548 10.3495 66.1722 10.131C65.6139 9.91253 64.8735 9.80329 63.951 9.80329C63.2956 9.80329 62.6159 9.86398 61.9119 9.98535C61.2322 10.1067 60.589 10.2767 59.9821 10.4951V25.2057H56.1588V8.41962Z"
      fill="white" />
    <path
      d="M84.8495 25.7519C83.7328 25.7519 82.6405 25.6063 81.5724 25.315C80.5043 25.048 79.5333 24.5625 78.6594 23.8585C77.7855 23.1302 77.0936 22.1228 76.5839 20.8363C76.0741 19.5497 75.8192 17.8868 75.8192 15.8478C75.8192 12.959 76.5232 10.6772 77.9311 9.00222C79.3391 7.32725 81.4753 6.48976 84.3397 6.48976C84.8009 6.48976 85.3714 6.55045 86.0511 6.67182C86.7308 6.7932 87.4226 6.97526 88.1266 7.21801C88.8306 7.43648 89.4253 7.72778 89.9108 8.09191L88.9277 9.36634V4.05678C88.9277 3.01106 89.7754 2.16333 90.8211 2.16333C91.8668 2.16333 92.7146 3.01105 92.7146 4.05678V21.3824C92.7146 22.135 92.4718 22.7904 91.9863 23.3487C91.5251 23.907 90.9061 24.3683 90.1293 24.7324C89.3525 25.0722 88.5029 25.3271 87.5804 25.497C86.658 25.667 85.7477 25.7519 84.8495 25.7519ZM84.9587 22.4384C86.0511 22.4384 86.9857 22.3049 87.7625 22.0379C88.5393 21.7708 88.9277 21.4189 88.9277 20.9819V10.8228C88.2965 10.4587 87.629 10.1917 86.925 10.0218C86.221 9.85184 85.5413 9.76688 84.8859 9.76688C83.6964 9.76688 82.7133 10.0096 81.9365 10.4951C81.184 10.9564 80.6256 11.6482 80.2615 12.5706C79.8974 13.4688 79.7153 14.5855 79.7153 15.9206C79.7153 17.1343 79.861 18.2388 80.1523 19.2341C80.4436 20.2051 80.9655 20.9819 81.718 21.5645C82.4948 22.1471 83.5751 22.4384 84.9587 22.4384Z"
      fill="white" />
    <path
      d="M104 25.7519C103.053 25.7519 102.143 25.6548 101.269 25.4606C100.395 25.2907 99.5942 24.9873 98.866 24.5503C98.162 24.1134 97.5916 23.5186 97.1546 22.7661C96.7419 21.9893 96.5356 21.0305 96.5356 19.8895C96.5356 18.5301 96.8026 17.4135 97.3367 16.5396C97.8707 15.6657 98.6354 15.0103 99.6307 14.5733C100.626 14.1364 101.815 13.9179 103.199 13.9179C104.122 13.9179 104.947 13.9907 105.675 14.1364C106.428 14.282 107.095 14.4884 107.678 14.7554C108.285 14.9981 108.794 15.2773 109.207 15.5929L109.608 18.1053C109.074 17.7412 108.357 17.4378 107.459 17.195C106.561 16.928 105.59 16.7945 104.546 16.7945C103.163 16.7945 102.107 17.0372 101.378 17.5227C100.674 18.0082 100.322 18.7365 100.322 19.7075C100.322 20.4357 100.529 21.0305 100.941 21.4917C101.354 21.9286 101.864 22.2563 102.471 22.4748C103.102 22.669 103.757 22.7661 104.437 22.7661C105.869 22.7661 106.925 22.669 107.605 22.4748C108.285 22.2806 108.625 21.8315 108.625 21.1276V13.4809C108.625 12.1944 108.236 11.2598 107.459 10.6772C106.683 10.0703 105.578 9.76688 104.146 9.76688C103.126 9.76688 102.07 9.9368 100.978 10.2767C99.8855 10.5922 98.9874 11.0413 98.2834 11.6239V8.05549C98.9631 7.59427 99.9462 7.23014 101.233 6.96312C102.544 6.67182 103.891 6.52617 105.275 6.52617C105.954 6.52617 106.634 6.599 107.314 6.74465C108.018 6.86602 108.673 7.07236 109.28 7.36366C109.887 7.63068 110.421 8.00694 110.882 8.49244C111.368 8.95367 111.744 9.52413 112.011 10.2038C112.278 10.8835 112.411 11.6846 112.411 12.607V21.346C112.411 22.5355 112.035 23.458 111.283 24.1134C110.554 24.7445 109.559 25.1693 108.297 25.3878C107.035 25.6306 105.602 25.7519 104 25.7519Z"
      fill="white" />
  </symbol>
</svg>