<svg version="1.1" xmlns="http://www.w3.org/2000/svg" xmlns:xlink="http://www.w3.org/1999/xlink">
    <symbol id="plus" viewBox="0 0 10 11">
        <path d="M10 4.41038V6.21604H0V4.41038H10ZM5.93186 0V11H4.07816V0H5.93186Z"/>
    </symbol>
    <symbol id="share" viewBox="0 0 17 18">
        <path d="M13.8125 6.32812C12.7629 6.32812 11.8303 5.8218 11.2491 5.04243L6.2458 7.58053C6.33166 7.87024 6.37517 8.17068 6.375 8.47266C6.37538 8.87942 6.29631 9.2824 6.14217 9.65929L11.386 12.7867C11.971 12.105 12.8417 11.6719 13.8125 11.6719C15.5701 11.6719 17 13.0913 17 14.8359C17 16.5806 15.5701 18 13.8125 18C12.0549 18 10.625 16.5806 10.625 14.8359C10.6246 14.4446 10.6978 14.0567 10.8407 13.692L5.58379 10.5567C4.99913 11.2183 4.14166 11.6367 3.1875 11.6367C1.42991 11.6367 0 10.2173 0 8.47266C0 6.72799 1.42991 5.30859 3.1875 5.30859C4.25432 5.30859 5.2003 5.83158 5.77919 6.63279L10.768 4.10207C10.6729 3.79834 10.6247 3.4821 10.625 3.16406C10.625 1.4194 12.0549 0 13.8125 0C15.5701 0 17 1.4194 17 3.16406C17 4.90873 15.5701 6.32812 13.8125 6.32812ZM13.8125 16.9453C14.9842 16.9453 15.9375 15.999 15.9375 14.8359C15.9375 13.6728 14.9842 12.7266 13.8125 12.7266C12.6408 12.7266 11.6875 13.6728 11.6875 14.8359C11.6875 15.999 12.6408 16.9453 13.8125 16.9453ZM3.1875 6.36328C2.01577 6.36328 1.0625 7.30955 1.0625 8.47266C1.0625 9.63577 2.01577 10.582 3.1875 10.582C4.35922 10.582 5.3125 9.63577 5.3125 8.47266C5.3125 7.30955 4.35922 6.36328 3.1875 6.36328ZM13.8125 1.05469C12.6408 1.05469 11.6875 2.00095 11.6875 3.16406C11.6875 4.32717 12.6408 5.27344 13.8125 5.27344C14.9842 5.27344 15.9375 4.32717 15.9375 3.16406C15.9375 2.00095 14.9842 1.05469 13.8125 1.05469Z"/>
    </symbol>
    <symbol id="top" viewBox="0 0 28 28">
        <path d="M9.87904 9.79365L9.87642 9.79578L9.87392 9.79821L9.87904 9.79365ZM21.4922 9.57603C21.411 9.4978 21.3209 9.42935 21.2238 9.37209C21.0864 9.29119 20.9338 9.23935 20.7755 9.21977C20.6172 9.20018 20.4566 9.21328 20.3036 9.25823C20.1506 9.30319 20.0084 9.37906 19.8859 9.48114C19.7633 9.58323 19.663 9.70936 19.5912 9.85175C19.1893 10.6436 18.635 11.3482 17.9602 11.9253C18.0634 11.3439 18.1154 10.7545 18.1157 10.1639C18.1179 8.36737 17.6439 6.60233 16.7421 5.04851C15.8403 3.49469 14.5429 2.20758 12.9819 1.31825C12.81 1.22077 12.6161 1.16858 12.4184 1.16656C12.2207 1.16455 12.0258 1.21279 11.8519 1.30675C11.678 1.4007 11.5308 1.5373 11.4242 1.70373C11.3175 1.87015 11.2549 2.06094 11.2422 2.2582C11.1769 3.3644 10.8877 4.44583 10.3921 5.43697C9.89656 6.42811 9.20493 7.30833 8.35914 8.02428L8.09026 8.24303C7.20583 8.83814 6.42297 9.57175 5.77174 10.4157C4.75944 11.691 4.0582 13.1846 3.72361 14.7781C3.38902 16.3716 3.4303 18.0211 3.84417 19.5958C4.25804 21.1706 5.03312 22.6272 6.10794 23.8503C7.18276 25.0734 8.52776 26.0292 10.0363 26.642C10.2134 26.7143 10.4056 26.742 10.5959 26.7225C10.7863 26.7031 10.9689 26.6371 11.1277 26.5303C11.2865 26.4236 11.4166 26.2794 11.5065 26.1105C11.5965 25.9416 11.6434 25.7532 11.6433 25.5619C11.6425 25.4381 11.6229 25.3152 11.5852 25.1973C11.3242 24.2162 11.249 23.1948 11.3636 22.1861C12.4675 24.2682 14.2396 25.9187 16.3948 26.8721C16.6579 26.9898 16.9553 27.0056 17.2294 26.9165C18.9322 26.3669 20.4662 25.391 21.6857 24.0816C22.9051 22.7721 23.7695 21.1726 24.1966 19.4351C24.6237 17.6975 24.5995 15.8795 24.1262 14.1539C23.6528 12.4284 22.7461 10.8525 21.4922 9.57603ZM16.9366 24.5456C15.9196 24.0302 15.0225 23.3065 14.3036 22.4217C13.5847 21.5368 13.06 20.5105 12.7638 19.4095C12.6733 19.0388 12.6034 18.6634 12.5542 18.285C12.5208 18.044 12.4131 17.8195 12.2459 17.6428C12.0787 17.4661 11.8604 17.3461 11.6216 17.2995C11.5481 17.285 11.4733 17.2778 11.3983 17.2779C11.1933 17.2778 10.9918 17.3318 10.8143 17.4344C10.6368 17.537 10.4894 17.6846 10.3872 17.8624C9.41914 19.532 8.93232 21.4371 8.98066 23.3664C8.12927 22.7045 7.41773 21.8801 6.88728 20.9411C6.35683 20.0022 6.01802 18.9673 5.89048 17.8964C5.76293 16.8255 5.84921 15.74 6.14429 14.7027C6.43937 13.6654 6.93739 12.697 7.60949 11.8536C8.1198 11.1907 8.73543 10.6161 9.43182 10.1526C9.46198 10.1331 9.49089 10.1118 9.51841 10.0888C9.51841 10.0888 9.86455 9.80238 9.87638 9.79582C11.5385 8.38994 12.7207 6.50059 13.2582 4.39101C14.5294 5.56612 15.377 7.12805 15.6695 8.83427C15.9619 10.5405 15.6828 12.2955 14.8755 13.8269C14.7689 14.0312 14.7251 14.2626 14.7498 14.4918C14.7744 14.7209 14.8664 14.9377 15.0141 15.1146C15.1618 15.2916 15.3586 15.4208 15.5797 15.4861C15.8008 15.5513 16.0363 15.5496 16.2564 15.4812C18.0435 14.921 19.616 13.8268 20.7624 12.3458C21.4514 13.3635 21.9018 14.5235 22.0801 15.7395C22.2585 16.9554 22.1601 18.196 21.7924 19.3686C21.4246 20.5413 20.797 21.6158 19.9562 22.5122C19.1155 23.4086 18.0833 24.1036 16.9365 24.5456L16.9366 24.5456Z"/>
    </symbol>
</svg>