<svg width="30" height="28" viewBox="0 0 30 28" fill="none" xmlns="http://www.w3.org/2000/svg">
<path d="M1.44507 26.192V10.1719H6.20336V26.192H1.44507Z" stroke="white" stroke-width="2"/>
<path d="M27.5022 14.1625L26.6888 14.7578L27.2905 15.5664C27.5263 15.8833 27.6661 16.2758 27.6661 16.7035C27.6661 17.3351 27.3597 17.8944 26.888 18.2394L26.0745 18.8346L26.6762 19.6434C26.9119 19.9603 27.0517 20.3529 27.0517 20.7806C27.0517 21.4126 26.7453 21.9723 26.2741 22.3172L25.4609 22.9123L26.0622 23.7209C26.2977 24.0375 26.4374 24.43 26.4374 24.8577C26.4374 25.9097 25.5913 26.7497 24.5747 26.7497H15.5626C14.1995 26.7497 12.8622 26.5048 11.5854 26.0211L11.2332 26.951L11.5854 26.0211L9.89291 25.3799V11.5254C11.1708 10.1328 12.3871 8.78138 13.3541 7.6745C14.3565 6.52713 15.1636 5.56171 15.4432 5.10978L15.5927 4.86803V4.58377V1.22691C15.5927 1.09303 15.6994 1 15.8072 1C18.0071 1 19.8159 2.81263 19.8159 5.06011V6.43382L18.949 9.45897L18.5835 10.7345H19.9103H26.4177C27.4343 10.7345 28.2804 11.5745 28.2804 12.6264C28.2804 13.2579 27.974 13.8172 27.5022 14.1625Z" stroke="white" stroke-width="2"/>
</svg>
