<svg width="29" height="28" viewBox="0 0 29 28" fill="none" xmlns="http://www.w3.org/2000/svg">
  <g opacity="0.2">
    <path d="M1 26.192V10.1719H5.75829V26.192H1Z" stroke="white" stroke-width="2" />
    <path
      d="M27.0571 14.1625L26.2437 14.7578L26.8454 15.5664C27.0812 15.8833 27.2209 16.2758 27.2209 16.7035C27.2209 17.3351 26.9145 17.8944 26.4429 18.2394L25.6293 18.8346L26.231 19.6434C26.4668 19.9603 26.6065 20.3529 26.6065 20.7806C26.6065 21.4126 26.3001 21.9723 25.8289 22.3172L25.0158 22.9123L25.6171 23.7209C25.8526 24.0375 25.9922 24.43 25.9922 24.8577C25.9922 25.9097 25.1461 26.7497 24.1296 26.7497H15.1175C13.7543 26.7497 12.417 26.5048 11.1403 26.0211L10.788 26.951L11.1403 26.0211L9.44775 25.3799V11.5254C10.7256 10.1328 11.9419 8.78138 12.9089 7.6745C13.9113 6.52713 14.7185 5.56171 14.998 5.10978L15.1475 4.86803V4.58377V1.22691C15.1475 1.09303 15.2542 1 15.362 1C17.562 1 19.3708 2.81263 19.3708 5.06011V6.43382L18.5039 9.45897L18.1384 10.7345H19.4652H25.9726C26.9892 10.7345 27.8353 11.5745 27.8353 12.6264C27.8353 13.2579 27.5289 13.8172 27.0571 14.1625Z"
      stroke="white" stroke-width="2" />
  </g>
</svg>