<svg width="29" height="29" viewBox="0 0 29 29" fill="none" xmlns="http://www.w3.org/2000/svg">
<g opacity="0.6">
<path d="M6.75829 9.67139H0V27.6915H6.75829V9.67139Z" fill="white"/>
<path d="M28.2209 17.203C28.2209 16.553 28.0074 15.9525 27.6477 15.469C28.3664 14.943 28.8353 14.0889 28.8353 13.1259C28.8353 11.5313 27.551 10.234 25.9726 10.234H19.4652L20.3708 7.07379V5.55962C20.3708 2.76949 18.1238 0.499512 15.362 0.499512C14.6923 0.499512 14.1475 1.04992 14.1475 1.72642V5.08328C13.6959 5.81349 11.1879 8.65658 8.44775 11.6353V26.57L10.786 27.4558C12.1758 27.9823 13.6331 28.2492 15.1175 28.2492H24.1296C25.708 28.2492 26.9922 26.9518 26.9922 25.3572C26.9922 24.7075 26.779 24.107 26.4195 23.6237C27.1381 23.0977 27.6065 22.2431 27.6065 21.2801C27.6065 20.6301 27.393 20.0295 27.0333 19.546C27.7521 19.0202 28.2209 18.1661 28.2209 17.203Z" fill="white"/>
</g>
</svg>
