<svg width="29" height="29" viewBox="0 0 29 29" fill="none" xmlns="http://www.w3.org/2000/svg">
<path d="M27.8355 1.84744V17.8676H23.0772V1.84744H27.8355Z" stroke="white" stroke-width="2"/>
<path d="M1.77831 13.8769L2.59172 13.2817L1.99 12.473C1.75423 12.1561 1.61446 11.7636 1.61446 11.3359C1.61446 10.7043 1.92089 10.145 2.39251 9.79998L3.20607 9.20478L2.60438 8.39602C2.36862 8.07912 2.22884 7.68656 2.22884 7.25884C2.22884 6.62683 2.53526 6.06712 3.00648 5.72226L3.81964 5.12713L3.21831 4.31854C2.98282 4.00188 2.84317 3.60941 2.84317 3.18172C2.84317 2.12972 3.68925 1.2897 4.70581 1.2897H13.7179C15.0811 1.2897 16.4184 1.53463 17.6951 2.01831L18.0474 1.08845L17.6951 2.01831L19.3876 2.6595V16.514C18.1098 17.9066 16.8934 19.258 15.9265 20.3649C14.9241 21.5123 14.1169 22.4777 13.8374 22.9296L13.6879 23.1714V23.4557V26.8125C13.6879 26.9464 13.5812 27.0394 13.4734 27.0394C11.2734 27.0394 9.46461 25.2268 9.46461 22.9793V21.6056L10.3315 18.5805L10.697 17.305H9.37022H2.86283C1.84622 17.305 1.00013 16.465 1.00013 15.413C1.00013 14.7816 1.30653 14.2222 1.77831 13.8769Z" stroke="white" stroke-width="2"/>
</svg>
