<svg width="29" height="29" viewBox="0 0 29 29" fill="none" xmlns="http://www.w3.org/2000/svg">
<g opacity="0.6">
<path d="M1 26.9417V10.9216H5.75829V26.9417H1Z" stroke="white" stroke-width="2"/>
<path d="M27.0571 14.9122L26.2437 15.5075L26.8454 16.3162C27.0812 16.633 27.2209 17.0256 27.2209 17.4533C27.2209 18.0849 26.9145 18.6442 26.4429 18.9892L25.6293 19.5844L26.231 20.3932C26.4668 20.7101 26.6065 21.1026 26.6065 21.5303C26.6065 22.1624 26.3001 22.7221 25.8289 23.0669L25.0158 23.6621L25.6171 24.4706C25.8526 24.7873 25.9922 25.1798 25.9922 25.6075C25.9922 26.6595 25.1461 27.4995 24.1296 27.4995H15.1175C13.7543 27.4995 12.417 27.2546 11.1403 26.7709L10.788 27.7007L11.1403 26.7709L9.44775 26.1297V12.2752C10.7256 10.8826 11.9419 9.53113 12.9089 8.42426C13.9113 7.27689 14.7185 6.31147 14.998 5.85954L15.1475 5.61778V5.33353V1.97666C15.1475 1.84279 15.2542 1.74976 15.362 1.74976C17.562 1.74976 19.3708 3.56239 19.3708 5.80986V7.18358L18.5039 10.2087L18.1384 11.4842H19.4652H25.9726C26.9892 11.4842 27.8353 12.3242 27.8353 13.3762C27.8353 14.0076 27.5289 14.567 27.0571 14.9122Z" stroke="white" stroke-width="2"/>
</g>
</svg>
